# xmcd
#
# Track frame offsets:
#	150
#	31409
#	47669
#	69668
#	83950
#	100828
#	119391
#	131475
#	147663
#	163613
#	179391
#	202280
#	215669
#	220885
#	243102
#
# Disc length: 3491 seconds
#
# Revision: 1
# Processed by: cddbd v1.5.2PL0 Copyright (c) Steve Scherf et al.
# Submitted via: audiograbber 1.83.01
#
DISCID=e70da10f
DTITLE=Hugh Laurie - let them talk
DYEAR=1900
DGENRE=
TTITLE0=saint james infirmary
TTITLE1=you don't know my mind
TTITLE2=six cold feet
TTITLE3=buddy bolden's blues
TTITLE4=joshua fit the battle of jerico
TTITLE5=after you've gone
TTITLE6=swanee river
TTITLE7=the whale has swallowed me
TTITLE8=john henry
TTITLE9=police dog blues
TTITLE10=tipitina
TTITLE11=winin' boy blues
TTITLE12=they're red hot
TTITLE13=baby, please make a change
TTITLE14=let them talk
EXTD=
EXTT0=
EXTT1=
EXTT2=
EXTT3=
EXTT4=
EXTT5=
EXTT6=
EXTT7=
EXTT8=
EXTT9=
EXTT10=
EXTT11=
EXTT12=
EXTT13=
EXTT14=
PLAYORDER=
